<?xml version="1.0" encoding="UTF-8" standalone="no"?>
<!-- Generator: Adobe Illustrator 19.0.0, SVG Export Plug-In . SVG Version: 6.00 Build 0)  -->

<svg
   xmlns:dc="http://purl.org/dc/elements/1.1/"
   xmlns:cc="http://creativecommons.org/ns#"
   xmlns:rdf="http://www.w3.org/1999/02/22-rdf-syntax-ns#"
   xmlns:svg="http://www.w3.org/2000/svg"
   xmlns="http://www.w3.org/2000/svg"
   xmlns:sodipodi="http://sodipodi.sourceforge.net/DTD/sodipodi-0.dtd"
   xmlns:inkscape="http://www.inkscape.org/namespaces/inkscape"
   version="1.1"
   id="Layer_1"
   x="0px"
   y="0px"
   viewBox="0 0 50 30"
   xml:space="preserve"
   sodipodi:docname="delivery-truck.svg"
   inkscape:version="0.92.1 r15371"
   width="50"
   height="30"
   inkscape:export-filename="C:\Users\nick\Desktop\git\image-storage\platt\delivery-truck.png"
   inkscape:export-xdpi="96"
   inkscape:export-ydpi="96"><metadata
   id="metadata3727"><rdf:RDF><cc:Work
       rdf:about=""><dc:format>image/svg+xml</dc:format><dc:type
         rdf:resource="http://purl.org/dc/dcmitype/StillImage" /><dc:title></dc:title></cc:Work></rdf:RDF></metadata><defs
   id="defs3725" /><sodipodi:namedview
   pagecolor="#ffffff"
   bordercolor="#666666"
   borderopacity="1"
   objecttolerance="10"
   gridtolerance="10"
   guidetolerance="10"
   inkscape:pageopacity="0"
   inkscape:pageshadow="2"
   inkscape:window-width="1600"
   inkscape:window-height="837"
   id="namedview3723"
   showgrid="false"
   inkscape:zoom="5.1171876"
   inkscape:cx="47.908196"
   inkscape:cy="50.51511"
   inkscape:window-x="-8"
   inkscape:window-y="-8"
   inkscape:window-maximized="1"
   inkscape:current-layer="Layer_1" />





















<path
   inkscape:connector-curvature="0"
   style="fill:#48926f;fill-opacity:1;stroke-width:0.08933038"
   d="M 45.743641,1.3036763 H 27.033485 c -0.221092,0 -0.399307,0.178125 -0.399307,0.399307 V 15.93519 c 0,0.221092 0.178125,0.399306 0.399307,0.399306 h 18.710156 c 0.221092,0 0.399306,-0.178124 0.399306,-0.399306 V 1.7028933 c -9e-5,-0.221092 -0.178214,-0.399217 -0.399306,-0.399217 z"
   id="path3756" /><polygon
   transform="matrix(-0.08933038,0,0,0.08933038,47.819771,-8.4015347)"
   style="fill:#fcd34e"
   points="63.398,108.644 63.398,141.03 48.615,126.797 33.281,141.03 33.281,108.644 "
   id="polygon3758" /><path
   inkscape:connector-curvature="0"
   style="fill:#ffffff;stroke-width:0.5;stroke:#6c7678;stroke-opacity:1;stroke-miterlimit:4;stroke-dasharray:none"
   d="M 24.011346,7.1206043 V 26.346645 H 15.577669 5.9953743 V 23.342909 H 3.3110866 v -5.171958 c 0,0 2.0454868,-1.726044 5.0491324,-2.426306 0,0 3.513543,-6.1978307 4.729774,-7.2174457 0,0 1.59705,-1.087152 10.921353,-1.406595 z"
   id="path3760" /><polygon
   transform="matrix(-0.08933038,0,0,0.08933038,47.819771,-8.4015347)"
   style="fill:#6c7678"
   points="218.594,322.286 39.057,322.286 39.125,322.493 39.125,340.371 16.984,340.371 16.984,388.985 266.521,388.985 266.521,339.683 218.594,339.683 "
   id="polygon3762" /><polygon
   transform="matrix(-0.08933038,0,0,0.08933038,47.819771,-8.4015347)"
   style="fill:#ffe356;fill-opacity:1"
   points="4.126,322.286 39.057,322.286 218.594,322.286 257.582,322.286 257.582,271.334 4.126,271.334 "
   id="polygon3764" /><path
   inkscape:connector-curvature="0"
   style="fill:#596366;stroke-width:0.08933038"
   d="m 5.2091819,26.346645 c -0.030742,-0.221092 -0.042963,-0.442274 -0.042963,-0.669534 0,-2.874742 2.3280345,-5.208854 5.2088531,-5.208854 2.874648,0 5.208855,2.32804 5.208855,5.208854 0,0.22726 -0.01838,0.448442 -0.04296,0.669534 H 5.215354 Z m 28.6793371,0 c -0.03074,-0.221092 -0.04296,-0.442274 -0.04296,-0.669534 0,-2.874742 2.32804,-5.208854 5.208854,-5.208854 2.874652,0 5.202692,2.32804 5.202692,5.208854 0,0.22726 -0.01838,0.448442 -0.04296,0.669534 z"
   id="path3766" /><g
   transform="matrix(-0.08933038,0,0,0.08933038,47.819771,-8.4015347)"
   id="g3772"><path
     inkscape:connector-curvature="0"
     style="fill:#6c7678"
     d="m 463.179,381.49 c 0,24.273 -19.666,44.008 -44.008,44.008 -24.273,0 -44.008,-19.666 -44.008,-44.008 0,-24.273 19.666,-44.008 44.008,-44.008 24.274,10e-4 44.008,19.667 44.008,44.008 z"
     id="path3768" /><path
     inkscape:connector-curvature="0"
     style="fill:#6c7678"
     d="m 141.03,381.49 c 0,23.723 -19.185,42.907 -42.907,42.907 -23.722,0 -42.907,-19.185 -42.907,-42.907 0,-23.722 19.185,-42.907 42.907,-42.907 23.722,0 42.907,19.184 42.907,42.907 z"
     id="path3770" /></g><path
   inkscape:connector-curvature="0"
   style="fill:#ecf0f1;stroke-width:0.5;stroke-miterlimit:4;stroke-dasharray:none;stroke:#6c7678;stroke-opacity:1"
   d="m 44.26326,26.555497 h 2.229683 c 0.350086,0 0.638806,-0.288715 0.638806,-0.638801 v -2.18672 c 0,-0.350086 -0.28872,-0.638801 -0.638806,-0.638801 H 44.26317 v 3.464322 z M 8.4524074,25.677111 c 0,1.062673 0.8599827,1.922571 1.9225706,1.922571 1.062582,0 1.922566,-0.859983 1.922566,-1.922571 0,-1.062582 -0.859984,-1.922565 -1.922566,-1.922565 -1.0625879,0 -1.9225706,0.859893 -1.9225706,1.922565 z m 28.4889786,0 c 0,1.167101 0.945918,2.11302 2.113019,2.11302 1.167102,0 2.11302,-0.945919 2.11302,-2.11302 0,-1.167101 -0.945918,-2.113019 -2.11302,-2.113019 -1.167101,0 -2.113019,0.945918 -2.113019,2.113019 z M 23.182181,25.327026 V 23.66852 23.600987 8.4166983 c 0,-0.07986 -0.06753,-0.147396 -0.147391,-0.147396 H 23.0102 c -0.07986,0 -0.147396,0.06753 -0.147396,0.147396 V 23.220168 c -0.01838,-0.0062 -0.04296,-0.0062 -0.06146,-0.0062 h -6.33906 c -0.208857,0 -0.380819,0.171962 -0.380819,0.380814 v 0.06753 c 0,0.208857 0.171962,0.380819 0.380819,0.380819 h 6.33906 c 0.01838,0 0.04296,0 0.06146,-0.0062 v 1.283765 h -7.284978 v 1.019706 h 8.433681 v -1.019619 h -0.829255 v 0.0063 z M 3.1391251,26.678328 h 2.9790802 v -3.45825 H 3.1391251 c -0.3808137,0 -0.6879316,0.307118 -0.6879316,0.687937 v 2.082292 c 0,0.380903 0.3071179,0.688021 0.6879316,0.688021 z M 17.500325,17.790132 h 1.934896 c 0.135156,0 0.239584,-0.110591 0.239584,-0.239585 v -0.04296 c 0,-0.135156 -0.110591,-0.239584 -0.239584,-0.239584 h -1.934896 c -0.135156,0 -0.239585,0.110591 -0.239585,0.239584 v 0.04296 c 0,0.135157 0.110591,0.239585 0.239585,0.239585 z"
   id="path3774" /><path
   inkscape:connector-curvature="0"
   style="fill:#ffe45e;stroke-width:0.08933038"
   d="m 46.278018,23.091175 h 0.04296 c 0.122826,0 0.227254,-0.104424 0.227254,-0.227255 v -0.694099 c 0,-0.122826 -0.104428,-0.227255 -0.227254,-0.227255 h -0.04296 c -0.122831,0 -0.227259,0.104429 -0.227259,0.227255 v 0.694099 c 0,0.122831 0.104428,0.227255 0.227259,0.227255 z"
   id="path3776" /><path
   inkscape:connector-curvature="0"
   style="fill:#8597b1;stroke-width:0.08933038"
   d="m 13.427844,9.7250283 h -1.357465 c 0,0 -3.3230889,4.9508667 -3.71007,6.0197067 h 2.69045 c 0.141324,0 0.270318,-0.07986 0.331683,-0.208852 l 2.420143,-5.215022 c 0.128989,-0.276385 -0.0737,-0.5896697 -0.380818,-0.5896697 z m -1.13021,5.5221347 2.168317,-5.135154 c 0.09826,-0.2334217 0.325521,-0.3808177 0.577431,-0.3808177 h 3.943487 c 0.294883,0 0.534377,0.239585 0.534377,0.5343767 v 4.950867 c 0,0.294878 -0.239584,0.534373 -0.534377,0.534373 h -6.357462 c -0.258078,0 -0.436202,-0.26415 -0.331773,-0.503645 z"
   id="path3778" /><path
   inkscape:connector-curvature="0"
   style="fill:#ff7069;stroke-width:0.08933038"
   d="m 3.3172493,19.64517 c 0.4790794,0.04913 0.8599878,0.454509 0.8599878,0.945918 v 1.031945 c 0,0.491405 -0.3808184,0.896789 -0.8599878,0.945919 v -2.92995 z"
   id="path3780" /><polygon
   transform="matrix(-0.08933038,0,0,0.08933038,47.819771,-8.4015347)"
   style="fill:#fcd34e"
   points="212.061,108.644 212.061,141.03 197.209,126.797 181.944,141.03 181.944,108.644 "
   id="polygon3788" /><path
   inkscape:connector-curvature="0"
   d="m 30.872473,9.1779413 c -0.07244,-0.100863 -0.201162,-0.184447 -0.352177,-0.256888 a 1.9899006,1.9899006 0 0 0 -0.480339,-0.128159 c -0.139866,-0.01126 -0.346603,-0.02219 -0.631351,-0.02782 -0.105877,0 -0.229025,-0.0056 -0.357191,-0.0056 h -1.200849 v 2.2428897 h 1.077701 v -0.740573 h 0.480339 a 5.1204698,5.1204698 0 0 0 0.692647,-0.03344 1.485042,1.485042 0 0 0 0.419043,-0.106433 0.81078279,0.81078279 0 0 0 0.352177,-0.2457397 0.55110944,0.55110944 0 0 0 0.128167,-0.357751 0.52826266,0.52826266 0 0 0 -0.128167,-0.340473 m -1.150697,0.530492 a 1.1668585,1.1668585 0 0 1 -0.312614,0.05573 c -0.07801,0.0056 -0.16717,0.0056 -0.262458,0.0056 h -0.218437 v -0.530495 h 0.229025 c 0.09473,0 0.178874,0.0056 0.251314,0.01126 a 1.5758721,1.5758721 0 0 1 0.318741,0.05015 c 0.105877,0.039 0.161599,0.106429 0.161599,0.201162 0,0.09472 -0.05572,0.167166 -0.16717,0.206733"
   style="fill:#ffffff;stroke-width:0.0557239"
   id="path3731" /><polygon
   points="113.27,35.29 113.27,44.71 67.06,44.71 67.06,4.42 87.71,4.42 87.71,35.29 "
   style="fill:#ffffff"
   id="polygon3733"
   transform="matrix(0.0557239,0,0,0.0557239,27.850566,8.5131503)" /><polygon
   points="211.6,44.71 211.6,13.84 194.66,13.84 194.66,4.42 249.09,4.42 249.09,13.84 232.15,13.84 232.15,44.71 "
   style="fill:#ffffff"
   id="polygon3735"
   transform="matrix(0.0557239,0,0,0.0557239,27.850566,8.5131503)" /><polygon
   points="275.45,44.71 275.45,13.84 258.51,13.84 258.51,4.42 312.94,4.42 312.94,13.84 295.99,13.84 295.99,44.71 "
   style="fill:#ffffff"
   id="polygon3737"
   transform="matrix(0.0557239,0,0,0.0557239,27.850566,8.5131503)" /><polygon
   points="146.85,5.02 120.68,45.31 141.33,45.31 159.85,11.59 178.36,45.31 199.01,45.31 172.85,5.02 159.85,5.02 159.84,5.02 "
   style="fill:#ffffff"
   id="polygon3739"
   transform="matrix(0.0557239,0,0,0.0557239,27.850566,8.5131503)" /><polygon
   points="174.01,13.23 159.07,18.95 164.59,0 143.94,27.77 160.58,21.35 138.93,56.13 "
   style="fill:#febe10"
   id="polygon3741"
   transform="matrix(0.0557239,0,0,0.0557239,27.850566,8.5131503)" /></svg>