<?xml version="1.0" encoding="UTF-8" standalone="no"?>
<svg
   xmlns:dc="http://purl.org/dc/elements/1.1/"
   xmlns:cc="http://creativecommons.org/ns#"
   xmlns:rdf="http://www.w3.org/1999/02/22-rdf-syntax-ns#"
   xmlns:svg="http://www.w3.org/2000/svg"
   xmlns="http://www.w3.org/2000/svg"
   xml:space="preserve"
   style="enable-background:new 0 0 512 512;"
   viewBox="0 0 512 512"
   y="0px"
   x="0px"
   id="Layer_1"
   version="1.1"><metadata
   id="metadata3727"><rdf:RDF><cc:Work
       rdf:about=""><dc:format>image/svg+xml</dc:format><dc:type
         rdf:resource="http://purl.org/dc/dcmitype/StillImage" /><dc:title></dc:title></cc:Work></rdf:RDF></metadata><defs
   id="defs3725" />
<polygon
   transform="matrix(-0.8780791,0,0,0.8780791,481.62535,58.663915)"
   id="polygon3680"
   points="512,243.406 512,354.76 286.179,354.757 322.577,156.318 471.416,156.318 "
   style="fill:#bec8d6" />
<polygon
   transform="matrix(-0.8780791,0,0,0.8780791,481.62535,58.663915)"
   id="polygon3682"
   points="322.577,354.76 512,354.76 512,379.026 0,379.026 0,354.76 161.288,245.566 "
   style="fill:#e6e2e0" />
<rect
   transform="scale(-1,1)"
   x="-481.62537"
   id="rect3684"
   height="254.93796"
   width="283.24371"
   style="fill:#008833;stroke-width:0.87807912;fill-opacity:1"
   y="115.23416" />
<circle
   transform="scale(-1,1)"
   r="60.192326"
   id="circle3686"
   cy="391.47873"
   cx="-124.20145"
   style="fill:#181818;stroke-width:0.87807912" />
<polygon
   transform="matrix(-0.8780791,0,0,0.8780791,481.62535,58.663915)"
   id="polygon3688"
   points="364.242,243.407 364.242,197.988 442.919,197.988 464.083,243.407 "
   style="fill:#ffffff" />
<circle
   transform="scale(-1,1)"
   r="60.192326"
   id="circle3690"
   cy="391.47873"
   cx="-389.47272"
   style="fill:#181818;stroke-width:0.87807912" />
<g
   transform="matrix(-0.8780791,0,0,0.8780791,481.62535,58.663915)"
   id="g3692">
</g>
<g
   transform="matrix(-0.8780791,0,0,0.8780791,481.62535,58.663915)"
   id="g3694">
</g>
<g
   transform="matrix(-0.8780791,0,0,0.8780791,481.62535,58.663915)"
   id="g3696">
</g>
<g
   transform="matrix(-0.8780791,0,0,0.8780791,481.62535,58.663915)"
   id="g3698">
</g>
<g
   transform="matrix(-0.8780791,0,0,0.8780791,481.62535,58.663915)"
   id="g3700">
</g>
<g
   transform="matrix(-0.8780791,0,0,0.8780791,481.62535,58.663915)"
   id="g3702">
</g>
<g
   transform="matrix(-0.8780791,0,0,0.8780791,481.62535,58.663915)"
   id="g3704">
</g>
<g
   transform="matrix(-0.8780791,0,0,0.8780791,481.62535,58.663915)"
   id="g3706">
</g>
<g
   transform="matrix(-0.8780791,0,0,0.8780791,481.62535,58.663915)"
   id="g3708">
</g>
<g
   transform="matrix(-0.8780791,0,0,0.8780791,481.62535,58.663915)"
   id="g3710">
</g>
<g
   transform="matrix(-0.8780791,0,0,0.8780791,481.62535,58.663915)"
   id="g3712">
</g>
<g
   transform="matrix(-0.8780791,0,0,0.8780791,481.62535,58.663915)"
   id="g3714">
</g>
<g
   transform="matrix(-0.8780791,0,0,0.8780791,481.62535,58.663915)"
   id="g3716">
</g>
<g
   transform="matrix(-0.8780791,0,0,0.8780791,481.62535,58.663915)"
   id="g3718">
</g>
<g
   transform="matrix(-0.8780791,0,0,0.8780791,481.62535,58.663915)"
   id="g3720">
</g>
<path
   id="path3731"
   style="fill:#ffffff;stroke-width:0.72147536"
   d="m 270.36859,233.80632 c -0.93792,-1.30587 -2.60453,-2.38808 -4.55973,-3.326 a 25.763885,25.763885 0 0 0 -6.21911,-1.65939 c -1.81091,-0.1443 -4.48758,-0.28859 -8.17432,-0.36074 -1.3708,0 -2.96526,-0.0721 -4.62466,-0.0721 h -15.54779 v 29.03938 h 13.95333 v -9.5884 h 6.21912 a 66.296371,66.296371 0 0 0 8.96794,-0.43289 19.227318,19.227318 0 0 0 5.42549,-1.37802 10.497467,10.497467 0 0 0 4.55973,-3.1817 7.1353914,7.1353914 0 0 0 1.65939,-4.63187 6.8395865,6.8395865 0 0 0 -1.65939,-4.40822 m -14.89847,6.86845 a 15.107694,15.107694 0 0 1 -4.04747,0.72147 c -1.01007,0.0721 -2.16443,0.0721 -3.39815,0.0721 h -2.82819 v -6.86845 h 2.96527 c 1.22651,0 2.31593,0.0721 3.25385,0.1443 a 20.403323,20.403323 0 0 1 4.12684,0.64933 c 1.3708,0.50503 2.09228,1.37801 2.09228,2.60452 0,1.22651 -0.72148,2.16443 -2.16443,2.67668" /><polygon
   transform="matrix(0.72147536,0,0,0.72147536,231.24298,225.19912)"
   id="polygon3733"
   style="fill:#ffffff"
   points="67.06,4.42 87.71,4.42 87.71,35.29 113.27,35.29 113.27,44.71 67.06,44.71 " /><polygon
   transform="matrix(0.72147536,0,0,0.72147536,231.24298,225.19912)"
   id="polygon3735"
   style="fill:#ffffff"
   points="232.15,44.71 211.6,44.71 211.6,13.84 194.66,13.84 194.66,4.42 249.09,4.42 249.09,13.84 232.15,13.84 " /><polygon
   transform="matrix(0.72147536,0,0,0.72147536,231.24298,225.19912)"
   id="polygon3737"
   style="fill:#ffffff"
   points="295.99,44.71 275.45,44.71 275.45,13.84 258.51,13.84 258.51,4.42 312.94,4.42 312.94,13.84 295.99,13.84 " /><polygon
   transform="matrix(0.72147536,0,0,0.72147536,231.24298,225.19912)"
   id="polygon3739"
   style="fill:#ffffff"
   points="159.85,11.59 178.36,45.31 199.01,45.31 172.85,5.02 159.85,5.02 159.84,5.02 146.85,5.02 120.68,45.31 141.33,45.31 " /><polygon
   transform="matrix(0.72147536,0,0,0.72147536,231.24298,225.19912)"
   id="polygon3741"
   style="fill:#febe10"
   points="143.94,27.77 160.58,21.35 138.93,56.13 174.01,13.23 159.07,18.95 164.59,0 " /></svg>